<mxfile host="app.diagrams.net" agent="Mozilla/5.0 (Windows NT 10.0; Win64; x64) AppleWebKit/537.36 (KHTML, like Gecko) Chrome/130.0.0.0 Safari/537.36" version="24.8.3">
  <diagram name="Trang-1" id="7hZtj89uphxA2HzugIl9">
    <mxGraphModel dx="1050" dy="1738" grid="1" gridSize="10" guides="1" tooltips="1" connect="1" arrows="1" fold="1" page="1" pageScale="1" pageWidth="827" pageHeight="1169" math="0" shadow="0">
      <root>
        <mxCell id="0" />
        <mxCell id="1" parent="0" />
        <mxCell id="9WyUzcEPmdMW09S0kKqX-4" value="Thông tin khách hàng" style="edgeStyle=orthogonalEdgeStyle;rounded=0;orthogonalLoop=1;jettySize=auto;html=1;exitX=1;exitY=0.5;exitDx=0;exitDy=0;entryX=0;entryY=0.5;entryDx=0;entryDy=0;" parent="1" source="9WyUzcEPmdMW09S0kKqX-1" target="9WyUzcEPmdMW09S0kKqX-3" edge="1">
          <mxGeometry relative="1" as="geometry" />
        </mxCell>
        <mxCell id="9WyUzcEPmdMW09S0kKqX-6" value="Yêu cầu thuê" style="edgeStyle=orthogonalEdgeStyle;rounded=0;orthogonalLoop=1;jettySize=auto;html=1;exitX=1;exitY=0.25;exitDx=0;exitDy=0;entryX=0;entryY=0;entryDx=0;entryDy=0;" parent="1" source="9WyUzcEPmdMW09S0kKqX-1" target="9WyUzcEPmdMW09S0kKqX-3" edge="1">
          <mxGeometry relative="1" as="geometry" />
        </mxCell>
        <mxCell id="9WyUzcEPmdMW09S0kKqX-8" style="edgeStyle=orthogonalEdgeStyle;rounded=0;orthogonalLoop=1;jettySize=auto;html=1;exitX=0.5;exitY=0;exitDx=0;exitDy=0;entryX=1;entryY=0;entryDx=0;entryDy=0;" parent="1" edge="1">
          <mxGeometry relative="1" as="geometry">
            <mxPoint x="120" y="-849.72" as="sourcePoint" />
            <mxPoint x="476.42640687119274" y="-848.0042712474618" as="targetPoint" />
            <Array as="points">
              <mxPoint x="120" y="-930" />
              <mxPoint x="476" y="-930" />
            </Array>
          </mxGeometry>
        </mxCell>
        <mxCell id="9WyUzcEPmdMW09S0kKqX-10" value="Hoá đơn thanh toán, băng đĩa thuê" style="edgeLabel;html=1;align=center;verticalAlign=middle;resizable=0;points=[];" parent="9WyUzcEPmdMW09S0kKqX-8" vertex="1" connectable="0">
          <mxGeometry x="0.0299" y="-1" relative="1" as="geometry">
            <mxPoint as="offset" />
          </mxGeometry>
        </mxCell>
        <mxCell id="9WyUzcEPmdMW09S0kKqX-11" value="Thông tin khuyến mãi" style="edgeStyle=orthogonalEdgeStyle;rounded=0;orthogonalLoop=1;jettySize=auto;html=1;exitX=0.5;exitY=1;exitDx=0;exitDy=0;entryX=0.5;entryY=1;entryDx=0;entryDy=0;endArrow=none;endFill=0;startArrow=classic;startFill=1;" parent="1" source="9WyUzcEPmdMW09S0kKqX-1" target="9WyUzcEPmdMW09S0kKqX-3" edge="1">
          <mxGeometry relative="1" as="geometry">
            <Array as="points">
              <mxPoint x="120" y="-718" />
              <mxPoint x="434" y="-718" />
            </Array>
          </mxGeometry>
        </mxCell>
        <mxCell id="9WyUzcEPmdMW09S0kKqX-1" value="Khách hàng" style="rounded=0;whiteSpace=wrap;html=1;" parent="1" vertex="1">
          <mxGeometry x="60" y="-848" width="120" height="80" as="geometry" />
        </mxCell>
        <mxCell id="9WyUzcEPmdMW09S0kKqX-14" value="Yêu cầu thông tin" style="edgeStyle=orthogonalEdgeStyle;rounded=0;orthogonalLoop=1;jettySize=auto;html=1;exitX=0;exitY=0.25;exitDx=0;exitDy=0;entryX=1;entryY=1;entryDx=0;entryDy=0;" parent="1" source="9WyUzcEPmdMW09S0kKqX-2" target="9WyUzcEPmdMW09S0kKqX-3" edge="1">
          <mxGeometry relative="1" as="geometry">
            <Array as="points">
              <mxPoint x="690" y="-790" />
            </Array>
          </mxGeometry>
        </mxCell>
        <mxCell id="9WyUzcEPmdMW09S0kKqX-2" value="Quản lý cửa hàng" style="rounded=0;whiteSpace=wrap;html=1;" parent="1" vertex="1">
          <mxGeometry x="690" y="-838" width="120" height="80" as="geometry" />
        </mxCell>
        <mxCell id="9WyUzcEPmdMW09S0kKqX-5" value="Thẻ khách hàng" style="edgeStyle=orthogonalEdgeStyle;rounded=0;orthogonalLoop=1;jettySize=auto;html=1;exitX=0;exitY=1;exitDx=0;exitDy=0;entryX=1;entryY=1;entryDx=0;entryDy=0;" parent="1" source="9WyUzcEPmdMW09S0kKqX-3" target="9WyUzcEPmdMW09S0kKqX-1" edge="1">
          <mxGeometry relative="1" as="geometry" />
        </mxCell>
        <mxCell id="9WyUzcEPmdMW09S0kKqX-7" value="Hoá đơn thuê" style="edgeStyle=orthogonalEdgeStyle;rounded=0;orthogonalLoop=1;jettySize=auto;html=1;exitX=0.5;exitY=0;exitDx=0;exitDy=0;entryX=0.75;entryY=0;entryDx=0;entryDy=0;" parent="1" source="9WyUzcEPmdMW09S0kKqX-3" target="9WyUzcEPmdMW09S0kKqX-1" edge="1">
          <mxGeometry relative="1" as="geometry" />
        </mxCell>
        <mxCell id="9WyUzcEPmdMW09S0kKqX-13" value="Thông tin, báo cáo" style="edgeStyle=orthogonalEdgeStyle;rounded=0;orthogonalLoop=1;jettySize=auto;html=1;exitX=1;exitY=0.5;exitDx=0;exitDy=0;" parent="1" source="9WyUzcEPmdMW09S0kKqX-3" target="9WyUzcEPmdMW09S0kKqX-2" edge="1">
          <mxGeometry relative="1" as="geometry">
            <Array as="points">
              <mxPoint x="640" y="-818" />
              <mxPoint x="640" y="-818" />
            </Array>
          </mxGeometry>
        </mxCell>
        <mxCell id="9WyUzcEPmdMW09S0kKqX-3" value="Quản lý thuê băng đĩa" style="ellipse;whiteSpace=wrap;html=1;" parent="1" vertex="1">
          <mxGeometry x="374" y="-858" width="120" height="80" as="geometry" />
        </mxCell>
        <mxCell id="M376p2YaKrN46hxI1Uzm-2" value="Upload Image public" style="edgeStyle=orthogonalEdgeStyle;rounded=0;orthogonalLoop=1;jettySize=auto;html=1;exitX=1;exitY=0.5;exitDx=0;exitDy=0;endArrow=none;endFill=0;" edge="1" parent="1" source="M376p2YaKrN46hxI1Uzm-1" target="M376p2YaKrN46hxI1Uzm-3">
          <mxGeometry relative="1" as="geometry">
            <mxPoint x="370" y="-460" as="targetPoint" />
          </mxGeometry>
        </mxCell>
        <mxCell id="M376p2YaKrN46hxI1Uzm-5" value="Upload image private" style="edgeStyle=orthogonalEdgeStyle;rounded=0;orthogonalLoop=1;jettySize=auto;html=1;exitX=1;exitY=1;exitDx=0;exitDy=0;entryX=0;entryY=0.5;entryDx=0;entryDy=0;endArrow=none;endFill=0;" edge="1" parent="1" source="M376p2YaKrN46hxI1Uzm-1" target="M376p2YaKrN46hxI1Uzm-4">
          <mxGeometry relative="1" as="geometry" />
        </mxCell>
        <mxCell id="M376p2YaKrN46hxI1Uzm-1" value="Origin" style="rounded=1;whiteSpace=wrap;html=1;" vertex="1" parent="1">
          <mxGeometry x="20" y="-430" width="120" height="60" as="geometry" />
        </mxCell>
        <mxCell id="M376p2YaKrN46hxI1Uzm-7" style="edgeStyle=orthogonalEdgeStyle;rounded=0;orthogonalLoop=1;jettySize=auto;html=1;exitX=1;exitY=0.5;exitDx=0;exitDy=0;entryX=0;entryY=0.5;entryDx=0;entryDy=0;endArrow=none;endFill=0;" edge="1" parent="1" source="M376p2YaKrN46hxI1Uzm-3" target="M376p2YaKrN46hxI1Uzm-6">
          <mxGeometry relative="1" as="geometry" />
        </mxCell>
        <mxCell id="M376p2YaKrN46hxI1Uzm-9" value="Delete" style="edgeLabel;html=1;align=center;verticalAlign=middle;resizable=0;points=[];" vertex="1" connectable="0" parent="M376p2YaKrN46hxI1Uzm-7">
          <mxGeometry x="-0.0556" relative="1" as="geometry">
            <mxPoint as="offset" />
          </mxGeometry>
        </mxCell>
        <mxCell id="M376p2YaKrN46hxI1Uzm-11" style="edgeStyle=orthogonalEdgeStyle;rounded=0;orthogonalLoop=1;jettySize=auto;html=1;exitX=0.5;exitY=1;exitDx=0;exitDy=0;entryX=0.5;entryY=0;entryDx=0;entryDy=0;endArrow=none;endFill=0;" edge="1" parent="1" source="M376p2YaKrN46hxI1Uzm-3" target="M376p2YaKrN46hxI1Uzm-4">
          <mxGeometry relative="1" as="geometry" />
        </mxCell>
        <mxCell id="M376p2YaKrN46hxI1Uzm-12" value="Change state" style="edgeLabel;html=1;align=center;verticalAlign=middle;resizable=0;points=[];" vertex="1" connectable="0" parent="M376p2YaKrN46hxI1Uzm-11">
          <mxGeometry x="-0.0667" y="-3" relative="1" as="geometry">
            <mxPoint as="offset" />
          </mxGeometry>
        </mxCell>
        <mxCell id="M376p2YaKrN46hxI1Uzm-3" value="Public" style="rounded=0;whiteSpace=wrap;html=1;" vertex="1" parent="1">
          <mxGeometry x="360" y="-490" width="120" height="60" as="geometry" />
        </mxCell>
        <mxCell id="M376p2YaKrN46hxI1Uzm-8" style="edgeStyle=orthogonalEdgeStyle;rounded=0;orthogonalLoop=1;jettySize=auto;html=1;exitX=1;exitY=0.5;exitDx=0;exitDy=0;entryX=0;entryY=0.5;entryDx=0;entryDy=0;endArrow=none;endFill=0;" edge="1" parent="1" source="M376p2YaKrN46hxI1Uzm-4" target="M376p2YaKrN46hxI1Uzm-6">
          <mxGeometry relative="1" as="geometry" />
        </mxCell>
        <mxCell id="M376p2YaKrN46hxI1Uzm-10" value="Delete" style="edgeLabel;html=1;align=center;verticalAlign=middle;resizable=0;points=[];" vertex="1" connectable="0" parent="M376p2YaKrN46hxI1Uzm-8">
          <mxGeometry x="-0.1125" relative="1" as="geometry">
            <mxPoint as="offset" />
          </mxGeometry>
        </mxCell>
        <mxCell id="M376p2YaKrN46hxI1Uzm-4" value="Private" style="rounded=0;whiteSpace=wrap;html=1;" vertex="1" parent="1">
          <mxGeometry x="360" y="-370" width="120" height="60" as="geometry" />
        </mxCell>
        <mxCell id="M376p2YaKrN46hxI1Uzm-6" value="Not exist" style="rounded=0;whiteSpace=wrap;html=1;" vertex="1" parent="1">
          <mxGeometry x="590" y="-420" width="120" height="60" as="geometry" />
        </mxCell>
      </root>
    </mxGraphModel>
  </diagram>
</mxfile>
